<svg xmlns="http://www.w3.org/2000/svg" width="820" height="470" viewBox="0 0 820 470">
<rect width="100%" height="100%" fill="white"/>
<text x="410.0" y="30" text-anchor="middle" font-family="sans-serif" font-size="18">Exp3.1 gemm_rs: GPT-3-175B, o_proj, S=36864</text>
<line x1="80" y1="380.0" x2="760" y2="380.0" stroke="#e5e7eb"/>
<text x="70" y="384.0" text-anchor="end" font-family="sans-serif" font-size="11">0.00</text>
<line x1="80" y1="317.0" x2="760" y2="317.0" stroke="#e5e7eb"/>
<text x="70" y="321.0" text-anchor="end" font-family="sans-serif" font-size="11">0.32</text>
<line x1="80" y1="254.0" x2="760" y2="254.0" stroke="#e5e7eb"/>
<text x="70" y="258.0" text-anchor="end" font-family="sans-serif" font-size="11">0.63</text>
<line x1="80" y1="191.0" x2="760" y2="191.0" stroke="#e5e7eb"/>
<text x="70" y="195.0" text-anchor="end" font-family="sans-serif" font-size="11">0.95</text>
<line x1="80" y1="128.0" x2="760" y2="128.0" stroke="#e5e7eb"/>
<text x="70" y="132.0" text-anchor="end" font-family="sans-serif" font-size="11">1.27</text>
<line x1="80" y1="65.0" x2="760" y2="65.0" stroke="#e5e7eb"/>
<text x="70" y="69.0" text-anchor="end" font-family="sans-serif" font-size="11">1.58</text>
<line x1="80" y1="65" x2="80" y2="380" stroke="#111827"/>
<line x1="80" y1="380" x2="760" y2="380" stroke="#111827"/>
<rect x="114.3" y="171.2" width="48" height="208.8" fill="#3b82f6"/>
<text x="138.3" y="166.2" text-anchor="middle" font-family="sans-serif" font-size="10">1.050</text>
<rect x="169.3" y="174.8" width="48" height="205.2" fill="#10b981"/>
<text x="193.3" y="169.8" text-anchor="middle" font-family="sans-serif" font-size="10">1.032</text>
<rect x="224.3" y="155.9" width="48" height="224.1" fill="#f97316"/>
<text x="248.3" y="150.9" text-anchor="middle" font-family="sans-serif" font-size="10">1.127</text>
<text x="193.3" y="405" text-anchor="middle" font-family="sans-serif" font-size="13">D=6</text>
<rect x="341.0" y="165.3" width="48" height="214.7" fill="#3b82f6"/>
<text x="365.0" y="160.3" text-anchor="middle" font-family="sans-serif" font-size="10">1.079</text>
<rect x="396.0" y="171.1" width="48" height="208.9" fill="#10b981"/>
<text x="420.0" y="166.1" text-anchor="middle" font-family="sans-serif" font-size="10">1.050</text>
<rect x="451.0" y="143.7" width="48" height="236.3" fill="#f97316"/>
<text x="475.0" y="138.7" text-anchor="middle" font-family="sans-serif" font-size="10">1.188</text>
<text x="420.0" y="405" text-anchor="middle" font-family="sans-serif" font-size="13">D=9</text>
<rect x="567.7" y="112.8" width="48" height="267.2" fill="#3b82f6"/>
<text x="591.7" y="107.8" text-anchor="middle" font-family="sans-serif" font-size="10">1.343</text>
<rect x="622.7" y="141.3" width="48" height="238.7" fill="#10b981"/>
<text x="646.7" y="136.3" text-anchor="middle" font-family="sans-serif" font-size="10">1.200</text>
<rect x="677.7" y="98.8" width="48" height="281.2" fill="#f97316"/>
<text x="701.7" y="93.8" text-anchor="middle" font-family="sans-serif" font-size="10">1.414</text>
<text x="646.7" y="405" text-anchor="middle" font-family="sans-serif" font-size="13">D=36</text>
<rect x="105" y="426" width="14" height="14" fill="#3b82f6"/>
<text x="125" y="438" font-family="sans-serif" font-size="12">native_full</text>
<rect x="330" y="426" width="14" height="14" fill="#10b981"/>
<text x="350" y="438" font-family="sans-serif" font-size="12">native_inter_only</text>
<rect x="555" y="426" width="14" height="14" fill="#f97316"/>
<text x="575" y="438" font-family="sans-serif" font-size="12">gpu_inter</text>
<text x="18" y="225" transform="rotate(-90 18 225)" text-anchor="middle" font-family="sans-serif" font-size="13">relative speedup (baseline/optimized)</text>
</svg>
