<svg xmlns="http://www.w3.org/2000/svg" width="820" height="470" viewBox="0 0 820 470">
<rect width="100%" height="100%" fill="white"/>
<text x="410.0" y="30" text-anchor="middle" font-family="sans-serif" font-size="18">Exp3.1 gemm_rs: GPT-3-175B, down_proj, S=2304</text>
<line x1="80" y1="380.0" x2="760" y2="380.0" stroke="#e5e7eb"/>
<text x="70" y="384.0" text-anchor="end" font-family="sans-serif" font-size="11">0.00</text>
<line x1="80" y1="317.0" x2="760" y2="317.0" stroke="#e5e7eb"/>
<text x="70" y="321.0" text-anchor="end" font-family="sans-serif" font-size="11">0.29</text>
<line x1="80" y1="254.0" x2="760" y2="254.0" stroke="#e5e7eb"/>
<text x="70" y="258.0" text-anchor="end" font-family="sans-serif" font-size="11">0.58</text>
<line x1="80" y1="191.0" x2="760" y2="191.0" stroke="#e5e7eb"/>
<text x="70" y="195.0" text-anchor="end" font-family="sans-serif" font-size="11">0.87</text>
<line x1="80" y1="128.0" x2="760" y2="128.0" stroke="#e5e7eb"/>
<text x="70" y="132.0" text-anchor="end" font-family="sans-serif" font-size="11">1.16</text>
<line x1="80" y1="65.0" x2="760" y2="65.0" stroke="#e5e7eb"/>
<text x="70" y="69.0" text-anchor="end" font-family="sans-serif" font-size="11">1.45</text>
<line x1="80" y1="65" x2="80" y2="380" stroke="#111827"/>
<line x1="80" y1="380" x2="760" y2="380" stroke="#111827"/>
<rect x="114.3" y="156.6" width="48" height="223.4" fill="#3b82f6"/>
<text x="138.3" y="151.6" text-anchor="middle" font-family="sans-serif" font-size="10">1.029</text>
<rect x="169.3" y="157.7" width="48" height="222.3" fill="#10b981"/>
<text x="193.3" y="152.7" text-anchor="middle" font-family="sans-serif" font-size="10">1.023</text>
<rect x="224.3" y="144.4" width="48" height="235.6" fill="#f97316"/>
<text x="248.3" y="139.4" text-anchor="middle" font-family="sans-serif" font-size="10">1.085</text>
<text x="193.3" y="405" text-anchor="middle" font-family="sans-serif" font-size="13">D=6</text>
<rect x="341.0" y="152.3" width="48" height="227.7" fill="#3b82f6"/>
<text x="365.0" y="147.3" text-anchor="middle" font-family="sans-serif" font-size="10">1.048</text>
<rect x="396.0" y="154.9" width="48" height="225.1" fill="#10b981"/>
<text x="420.0" y="149.9" text-anchor="middle" font-family="sans-serif" font-size="10">1.036</text>
<rect x="451.0" y="146.1" width="48" height="233.9" fill="#f97316"/>
<text x="475.0" y="141.1" text-anchor="middle" font-family="sans-serif" font-size="10">1.077</text>
<text x="420.0" y="405" text-anchor="middle" font-family="sans-serif" font-size="13">D=9</text>
<rect x="567.7" y="116.1" width="48" height="263.9" fill="#3b82f6"/>
<text x="591.7" y="111.1" text-anchor="middle" font-family="sans-serif" font-size="10">1.215</text>
<rect x="622.7" y="133.2" width="48" height="246.8" fill="#10b981"/>
<text x="646.7" y="128.2" text-anchor="middle" font-family="sans-serif" font-size="10">1.136</text>
<rect x="677.7" y="98.8" width="48" height="281.2" fill="#f97316"/>
<text x="701.7" y="93.8" text-anchor="middle" font-family="sans-serif" font-size="10">1.295</text>
<text x="646.7" y="405" text-anchor="middle" font-family="sans-serif" font-size="13">D=36</text>
<rect x="105" y="426" width="14" height="14" fill="#3b82f6"/>
<text x="125" y="438" font-family="sans-serif" font-size="12">native_full</text>
<rect x="330" y="426" width="14" height="14" fill="#10b981"/>
<text x="350" y="438" font-family="sans-serif" font-size="12">native_inter_only</text>
<rect x="555" y="426" width="14" height="14" fill="#f97316"/>
<text x="575" y="438" font-family="sans-serif" font-size="12">gpu_inter</text>
<text x="18" y="225" transform="rotate(-90 18 225)" text-anchor="middle" font-family="sans-serif" font-size="13">relative speedup (baseline/optimized)</text>
</svg>
