<svg xmlns="http://www.w3.org/2000/svg" width="820" height="470" viewBox="0 0 820 470">
<rect width="100%" height="100%" fill="white"/>
<text x="410.0" y="30" text-anchor="middle" font-family="sans-serif" font-size="18">Exp3.1 gemm_rs: GPT-3-175B, o_proj, S=2304</text>
<line x1="80" y1="380.0" x2="760" y2="380.0" stroke="#e5e7eb"/>
<text x="70" y="384.0" text-anchor="end" font-family="sans-serif" font-size="11">0.00</text>
<line x1="80" y1="317.0" x2="760" y2="317.0" stroke="#e5e7eb"/>
<text x="70" y="321.0" text-anchor="end" font-family="sans-serif" font-size="11">0.34</text>
<line x1="80" y1="254.0" x2="760" y2="254.0" stroke="#e5e7eb"/>
<text x="70" y="258.0" text-anchor="end" font-family="sans-serif" font-size="11">0.69</text>
<line x1="80" y1="191.0" x2="760" y2="191.0" stroke="#e5e7eb"/>
<text x="70" y="195.0" text-anchor="end" font-family="sans-serif" font-size="11">1.03</text>
<line x1="80" y1="128.0" x2="760" y2="128.0" stroke="#e5e7eb"/>
<text x="70" y="132.0" text-anchor="end" font-family="sans-serif" font-size="11">1.38</text>
<line x1="80" y1="65.0" x2="760" y2="65.0" stroke="#e5e7eb"/>
<text x="70" y="69.0" text-anchor="end" font-family="sans-serif" font-size="11">1.72</text>
<line x1="80" y1="65" x2="80" y2="380" stroke="#111827"/>
<line x1="80" y1="380" x2="760" y2="380" stroke="#111827"/>
<rect x="114.3" y="189.4" width="48" height="190.6" fill="#3b82f6"/>
<text x="138.3" y="184.4" text-anchor="middle" font-family="sans-serif" font-size="10">1.041</text>
<rect x="169.3" y="191.3" width="48" height="188.7" fill="#10b981"/>
<text x="193.3" y="186.3" text-anchor="middle" font-family="sans-serif" font-size="10">1.031</text>
<rect x="224.3" y="176.5" width="48" height="203.5" fill="#f97316"/>
<text x="248.3" y="171.5" text-anchor="middle" font-family="sans-serif" font-size="10">1.112</text>
<text x="193.3" y="405" text-anchor="middle" font-family="sans-serif" font-size="13">D=6</text>
<rect x="341.0" y="184.1" width="48" height="195.9" fill="#3b82f6"/>
<text x="365.0" y="179.1" text-anchor="middle" font-family="sans-serif" font-size="10">1.070</text>
<rect x="396.0" y="188.0" width="48" height="192.0" fill="#10b981"/>
<text x="420.0" y="183.0" text-anchor="middle" font-family="sans-serif" font-size="10">1.049</text>
<rect x="451.0" y="164.8" width="48" height="215.2" fill="#f97316"/>
<text x="475.0" y="159.8" text-anchor="middle" font-family="sans-serif" font-size="10">1.176</text>
<text x="420.0" y="405" text-anchor="middle" font-family="sans-serif" font-size="13">D=9</text>
<rect x="567.7" y="137.2" width="48" height="242.8" fill="#3b82f6"/>
<text x="591.7" y="132.2" text-anchor="middle" font-family="sans-serif" font-size="10">1.327</text>
<rect x="622.7" y="161.0" width="48" height="219.0" fill="#10b981"/>
<text x="646.7" y="156.0" text-anchor="middle" font-family="sans-serif" font-size="10">1.197</text>
<rect x="677.7" y="98.8" width="48" height="281.2" fill="#f97316"/>
<text x="701.7" y="93.8" text-anchor="middle" font-family="sans-serif" font-size="10">1.537</text>
<text x="646.7" y="405" text-anchor="middle" font-family="sans-serif" font-size="13">D=36</text>
<rect x="105" y="426" width="14" height="14" fill="#3b82f6"/>
<text x="125" y="438" font-family="sans-serif" font-size="12">native_full</text>
<rect x="330" y="426" width="14" height="14" fill="#10b981"/>
<text x="350" y="438" font-family="sans-serif" font-size="12">native_inter_only</text>
<rect x="555" y="426" width="14" height="14" fill="#f97316"/>
<text x="575" y="438" font-family="sans-serif" font-size="12">gpu_inter</text>
<text x="18" y="225" transform="rotate(-90 18 225)" text-anchor="middle" font-family="sans-serif" font-size="13">relative speedup (baseline/optimized)</text>
</svg>
