<svg xmlns="http://www.w3.org/2000/svg" width="1500" height="760">
<rect width="100%" height="100%" fill="white"/>
<text x="750.0" y="32" text-anchor="middle" font-family="sans-serif" font-size="21">6x6 — AG_GEMM</text>
<text x="750.0" y="56" text-anchor="middle" font-family="sans-serif" font-size="12" fill="#555">bars normalized by chart max = 953.897 TFLOP/s; line shows actual/theoretical speedup ratio</text>
<line x1="92" y1="542.00" x2="1400" y2="542.00" stroke="#b8b8b8" stroke-width="1.15"/>
<text x="82" y="546.00" text-anchor="end" font-family="sans-serif" font-size="11">0.0</text>
<text x="1410" y="546.00" font-family="sans-serif" font-size="11">0%</text>
<line x1="92" y1="450.00" x2="1400" y2="450.00" stroke="#b8b8b8" stroke-width="1.15"/>
<text x="82" y="454.00" text-anchor="end" font-family="sans-serif" font-size="11">0.2</text>
<text x="1410" y="454.00" font-family="sans-serif" font-size="11">20%</text>
<line x1="92" y1="358.00" x2="1400" y2="358.00" stroke="#b8b8b8" stroke-width="1.15"/>
<text x="82" y="362.00" text-anchor="end" font-family="sans-serif" font-size="11">0.4</text>
<text x="1410" y="362.00" font-family="sans-serif" font-size="11">40%</text>
<line x1="92" y1="266.00" x2="1400" y2="266.00" stroke="#b8b8b8" stroke-width="1.15"/>
<text x="82" y="270.00" text-anchor="end" font-family="sans-serif" font-size="11">0.6</text>
<text x="1410" y="270.00" font-family="sans-serif" font-size="11">60%</text>
<line x1="92" y1="174.00" x2="1400" y2="174.00" stroke="#b8b8b8" stroke-width="1.15"/>
<text x="82" y="178.00" text-anchor="end" font-family="sans-serif" font-size="11">0.8</text>
<text x="1410" y="178.00" font-family="sans-serif" font-size="11">80%</text>
<line x1="92" y1="82.00" x2="1400" y2="82.00" stroke="#b8b8b8" stroke-width="1.15"/>
<text x="82" y="86.00" text-anchor="end" font-family="sans-serif" font-size="11">1.0</text>
<text x="1410" y="86.00" font-family="sans-serif" font-size="11">100%</text>
<rect data-role="optimized-gain" x="104.61" y="247.61" width="33.32" height="228.02" fill="#9ecae1"/>
<rect data-role="naive-baseline" x="104.61" y="475.63" width="33.32" height="66.37" fill="#24557a"/>
<rect data-role="bar-outline" x="104.61" y="247.61" width="33.32" height="294.39" fill="none" stroke="#000" stroke-width="1.2"/>
<text x="121.27" y="560" text-anchor="middle" font-family="sans-serif" font-size="9.5">S=36864</text>
<rect data-role="optimized-gain" x="149.63" y="240.42" width="33.32" height="235.21" fill="#a8dcc8"/>
<rect data-role="naive-baseline" x="149.63" y="475.63" width="33.32" height="66.37" fill="#28735a"/>
<rect data-role="bar-outline" x="149.63" y="240.42" width="33.32" height="301.58" fill="none" stroke="#000" stroke-width="1.2"/>
<text x="166.29" y="560" text-anchor="middle" font-family="sans-serif" font-size="9.5">S=147456</text>
<rect data-role="optimized-gain" x="223.93" y="89.70" width="33.32" height="345.09" fill="#9ecae1"/>
<rect data-role="naive-baseline" x="223.93" y="434.79" width="33.32" height="107.21" fill="#24557a"/>
<rect data-role="bar-outline" x="223.93" y="89.70" width="33.32" height="452.30" fill="none" stroke="#000" stroke-width="1.2"/>
<text x="240.59" y="560" text-anchor="middle" font-family="sans-serif" font-size="9.5">S=36864</text>
<rect data-role="optimized-gain" x="268.95" y="82.00" width="33.32" height="352.79" fill="#a8dcc8"/>
<rect data-role="naive-baseline" x="268.95" y="434.79" width="33.32" height="107.21" fill="#28735a"/>
<rect data-role="bar-outline" x="268.95" y="82.00" width="33.32" height="460.00" fill="none" stroke="#000" stroke-width="1.2"/>
<text x="285.61" y="560" text-anchor="middle" font-family="sans-serif" font-size="9.5">S=147456</text>
<rect data-role="optimized-gain" x="343.24" y="394.80" width="33.32" height="114.01" fill="#9ecae1"/>
<rect data-role="naive-baseline" x="343.24" y="508.81" width="33.32" height="33.19" fill="#24557a"/>
<rect data-role="bar-outline" x="343.24" y="394.80" width="33.32" height="147.20" fill="none" stroke="#000" stroke-width="1.2"/>
<text x="359.90" y="560" text-anchor="middle" font-family="sans-serif" font-size="9.5">S=36864</text>
<rect data-role="optimized-gain" x="388.27" y="391.21" width="33.32" height="117.61" fill="#a8dcc8"/>
<rect data-role="naive-baseline" x="388.27" y="508.81" width="33.32" height="33.19" fill="#28735a"/>
<rect data-role="bar-outline" x="388.27" y="391.21" width="33.32" height="150.79" fill="none" stroke="#000" stroke-width="1.2"/>
<text x="404.93" y="560" text-anchor="middle" font-family="sans-serif" font-size="9.5">S=147456</text>
<rect data-role="optimized-gain" x="462.56" y="100.41" width="33.32" height="336.88" fill="#9ecae1"/>
<rect data-role="naive-baseline" x="462.56" y="437.29" width="33.32" height="104.71" fill="#24557a"/>
<rect data-role="bar-outline" x="462.56" y="100.41" width="33.32" height="441.59" fill="none" stroke="#000" stroke-width="1.2"/>
<text x="479.22" y="560" text-anchor="middle" font-family="sans-serif" font-size="9.5">S=36864</text>
<rect data-role="optimized-gain" x="507.59" y="89.63" width="33.32" height="347.67" fill="#a8dcc8"/>
<rect data-role="naive-baseline" x="507.59" y="437.29" width="33.32" height="104.71" fill="#28735a"/>
<rect data-role="bar-outline" x="507.59" y="89.63" width="33.32" height="452.37" fill="none" stroke="#000" stroke-width="1.2"/>
<text x="524.25" y="560" text-anchor="middle" font-family="sans-serif" font-size="9.5">S=147456</text>
<rect data-role="optimized-gain" x="581.88" y="394.80" width="33.32" height="114.01" fill="#9ecae1"/>
<rect data-role="naive-baseline" x="581.88" y="508.81" width="33.32" height="33.19" fill="#24557a"/>
<rect data-role="bar-outline" x="581.88" y="394.80" width="33.32" height="147.20" fill="none" stroke="#000" stroke-width="1.2"/>
<text x="598.54" y="560" text-anchor="middle" font-family="sans-serif" font-size="9.5">S=36864</text>
<rect data-role="optimized-gain" x="626.91" y="391.21" width="33.32" height="117.61" fill="#a8dcc8"/>
<rect data-role="naive-baseline" x="626.91" y="508.81" width="33.32" height="33.19" fill="#28735a"/>
<rect data-role="bar-outline" x="626.91" y="391.21" width="33.32" height="150.79" fill="none" stroke="#000" stroke-width="1.2"/>
<text x="643.57" y="560" text-anchor="middle" font-family="sans-serif" font-size="9.5">S=147456</text>
<rect data-role="optimized-gain" x="712.46" y="278.27" width="33.32" height="204.27" fill="#9ecae1"/>
<rect data-role="naive-baseline" x="712.46" y="482.54" width="33.32" height="59.46" fill="#24557a"/>
<rect data-role="bar-outline" x="712.46" y="278.27" width="33.32" height="263.73" fill="none" stroke="#000" stroke-width="1.2"/>
<text x="729.12" y="560" text-anchor="middle" font-family="sans-serif" font-size="9.5">S=36864</text>
<rect data-role="optimized-gain" x="757.48" y="271.83" width="33.32" height="210.71" fill="#a8dcc8"/>
<rect data-role="naive-baseline" x="757.48" y="482.54" width="33.32" height="59.46" fill="#28735a"/>
<rect data-role="bar-outline" x="757.48" y="271.83" width="33.32" height="270.17" fill="none" stroke="#000" stroke-width="1.2"/>
<text x="774.14" y="560" text-anchor="middle" font-family="sans-serif" font-size="9.5">S=147456</text>
<rect data-role="optimized-gain" x="831.77" y="141.85" width="33.32" height="304.12" fill="#9ecae1"/>
<rect data-role="naive-baseline" x="831.77" y="445.97" width="33.32" height="96.03" fill="#24557a"/>
<rect data-role="bar-outline" x="831.77" y="141.85" width="33.32" height="400.15" fill="none" stroke="#000" stroke-width="1.2"/>
<text x="848.43" y="560" text-anchor="middle" font-family="sans-serif" font-size="9.5">S=36864</text>
<rect data-role="optimized-gain" x="876.80" y="136.59" width="33.32" height="309.37" fill="#a8dcc8"/>
<rect data-role="naive-baseline" x="876.80" y="445.97" width="33.32" height="96.03" fill="#28735a"/>
<rect data-role="bar-outline" x="876.80" y="136.59" width="33.32" height="405.41" fill="none" stroke="#000" stroke-width="1.2"/>
<text x="893.46" y="560" text-anchor="middle" font-family="sans-serif" font-size="9.5">S=147456</text>
<rect data-role="optimized-gain" x="951.09" y="198.54" width="33.32" height="266.03" fill="#9ecae1"/>
<rect data-role="naive-baseline" x="951.09" y="464.57" width="33.32" height="77.43" fill="#24557a"/>
<rect data-role="bar-outline" x="951.09" y="198.54" width="33.32" height="343.46" fill="none" stroke="#000" stroke-width="1.2"/>
<text x="967.75" y="560" text-anchor="middle" font-family="sans-serif" font-size="9.5">S=36864</text>
<rect data-role="optimized-gain" x="996.12" y="190.15" width="33.32" height="274.41" fill="#a8dcc8"/>
<rect data-role="naive-baseline" x="996.12" y="464.57" width="33.32" height="77.43" fill="#28735a"/>
<rect data-role="bar-outline" x="996.12" y="190.15" width="33.32" height="351.85" fill="none" stroke="#000" stroke-width="1.2"/>
<text x="1012.78" y="560" text-anchor="middle" font-family="sans-serif" font-size="9.5">S=147456</text>
<rect data-role="optimized-gain" x="1070.41" y="108.50" width="33.32" height="329.03" fill="#9ecae1"/>
<rect data-role="naive-baseline" x="1070.41" y="437.53" width="33.32" height="104.47" fill="#24557a"/>
<rect data-role="bar-outline" x="1070.41" y="108.50" width="33.32" height="433.50" fill="none" stroke="#000" stroke-width="1.2"/>
<text x="1087.07" y="560" text-anchor="middle" font-family="sans-serif" font-size="9.5">S=36864</text>
<rect data-role="optimized-gain" x="1115.44" y="102.81" width="33.32" height="334.72" fill="#a8dcc8"/>
<rect data-role="naive-baseline" x="1115.44" y="437.53" width="33.32" height="104.47" fill="#28735a"/>
<rect data-role="bar-outline" x="1115.44" y="102.81" width="33.32" height="439.19" fill="none" stroke="#000" stroke-width="1.2"/>
<text x="1132.10" y="560" text-anchor="middle" font-family="sans-serif" font-size="9.5">S=147456</text>
<rect data-role="optimized-gain" x="1189.73" y="198.54" width="33.32" height="266.03" fill="#9ecae1"/>
<rect data-role="naive-baseline" x="1189.73" y="464.57" width="33.32" height="77.43" fill="#24557a"/>
<rect data-role="bar-outline" x="1189.73" y="198.54" width="33.32" height="343.46" fill="none" stroke="#000" stroke-width="1.2"/>
<text x="1206.39" y="560" text-anchor="middle" font-family="sans-serif" font-size="9.5">S=36864</text>
<rect data-role="optimized-gain" x="1234.76" y="190.15" width="33.32" height="274.41" fill="#a8dcc8"/>
<rect data-role="naive-baseline" x="1234.76" y="464.57" width="33.32" height="77.43" fill="#28735a"/>
<rect data-role="bar-outline" x="1234.76" y="190.15" width="33.32" height="351.85" fill="none" stroke="#000" stroke-width="1.2"/>
<text x="1251.41" y="560" text-anchor="middle" font-family="sans-serif" font-size="9.5">S=147456</text>
<rect data-role="optimized-gain" x="1309.05" y="492.93" width="33.32" height="37.68" fill="#9ecae1"/>
<rect data-role="naive-baseline" x="1309.05" y="530.62" width="33.32" height="11.38" fill="#24557a"/>
<rect data-role="bar-outline" x="1309.05" y="492.93" width="33.32" height="49.07" fill="none" stroke="#000" stroke-width="1.2"/>
<text x="1325.71" y="560" text-anchor="middle" font-family="sans-serif" font-size="9.5">S=36864</text>
<rect data-role="optimized-gain" x="1354.07" y="491.74" width="33.32" height="38.88" fill="#a8dcc8"/>
<rect data-role="naive-baseline" x="1354.07" y="530.62" width="33.32" height="11.38" fill="#28735a"/>
<rect data-role="bar-outline" x="1354.07" y="491.74" width="33.32" height="50.26" fill="none" stroke="#000" stroke-width="1.2"/>
<text x="1370.73" y="560" text-anchor="middle" font-family="sans-serif" font-size="9.5">S=147456</text>
<polyline data-layer="attention" points="121.27,184.62 166.29,176.12 240.59,176.18 285.61,170.01 359.90,184.62 404.93,176.12 479.22,184.62 524.25,176.12 598.54,184.62 643.57,176.12" fill="none" stroke="#a23b72" stroke-width="6.75" stroke-linejoin="round" stroke-linecap="round"/>
<polyline data-layer="mlp" points="729.12,184.62 774.14,176.12 848.43,177.94 893.46,173.19 967.75,184.62 1012.78,176.12 1087.07,177.94 1132.10,173.19 1206.39,184.62 1251.41,176.12 1325.71,184.62 1370.73,176.12" fill="none" stroke="#a23b72" stroke-width="6.75" stroke-linejoin="round" stroke-linecap="round"/>
<circle cx="121.27" cy="184.62" r="8.68" fill="white" stroke="#a23b72" stroke-width="5.1"/>
<circle cx="166.29" cy="176.12" r="8.68" fill="white" stroke="#a23b72" stroke-width="5.1"/>
<circle cx="240.59" cy="176.18" r="8.68" fill="white" stroke="#a23b72" stroke-width="5.1"/>
<circle cx="285.61" cy="170.01" r="8.68" fill="white" stroke="#a23b72" stroke-width="5.1"/>
<circle cx="359.90" cy="184.62" r="8.68" fill="white" stroke="#a23b72" stroke-width="5.1"/>
<circle cx="404.93" cy="176.12" r="8.68" fill="white" stroke="#a23b72" stroke-width="5.1"/>
<circle cx="479.22" cy="184.62" r="8.68" fill="white" stroke="#a23b72" stroke-width="5.1"/>
<circle cx="524.25" cy="176.12" r="8.68" fill="white" stroke="#a23b72" stroke-width="5.1"/>
<circle cx="598.54" cy="184.62" r="8.68" fill="white" stroke="#a23b72" stroke-width="5.1"/>
<circle cx="643.57" cy="176.12" r="8.68" fill="white" stroke="#a23b72" stroke-width="5.1"/>
<circle cx="729.12" cy="184.62" r="8.68" fill="white" stroke="#a23b72" stroke-width="5.1"/>
<circle cx="774.14" cy="176.12" r="8.68" fill="white" stroke="#a23b72" stroke-width="5.1"/>
<circle cx="848.43" cy="177.94" r="8.68" fill="white" stroke="#a23b72" stroke-width="5.1"/>
<circle cx="893.46" cy="173.19" r="8.68" fill="white" stroke="#a23b72" stroke-width="5.1"/>
<circle cx="967.75" cy="184.62" r="8.68" fill="white" stroke="#a23b72" stroke-width="5.1"/>
<circle cx="1012.78" cy="176.12" r="8.68" fill="white" stroke="#a23b72" stroke-width="5.1"/>
<circle cx="1087.07" cy="177.94" r="8.68" fill="white" stroke="#a23b72" stroke-width="5.1"/>
<circle cx="1132.10" cy="173.19" r="8.68" fill="white" stroke="#a23b72" stroke-width="5.1"/>
<circle cx="1206.39" cy="184.62" r="8.68" fill="white" stroke="#a23b72" stroke-width="5.1"/>
<circle cx="1251.41" cy="176.12" r="8.68" fill="white" stroke="#a23b72" stroke-width="5.1"/>
<circle cx="1325.71" cy="184.62" r="8.68" fill="white" stroke="#a23b72" stroke-width="5.1"/>
<circle cx="1370.73" cy="176.12" r="8.68" fill="white" stroke="#a23b72" stroke-width="5.1"/>
<rect data-role="plot-frame" x="92" y="82" width="1308" height="460" fill="none" stroke="#111" stroke-width="1.5"/>
<line x1="102.36" y1="585.00" x2="185.20" y2="585.00" stroke="#666" stroke-width="1.1"/>
<text x="143.78" y="599.00" text-anchor="middle" font-family="sans-serif" font-size="9.5"><tspan x="143.78">MHA-S</tspan><tspan x="143.78" dy="12">LLaMA-2-7B</tspan></text>
<line x1="221.67" y1="585.00" x2="304.52" y2="585.00" stroke="#666" stroke-width="1.1"/>
<text x="263.10" y="599.00" text-anchor="middle" font-family="sans-serif" font-size="9.5"><tspan x="263.10">MHA-L</tspan><tspan x="263.10" dy="12">GPT-3-175B</tspan></text>
<line x1="340.99" y1="585.00" x2="423.84" y2="585.00" stroke="#666" stroke-width="1.1"/>
<text x="382.42" y="599.00" text-anchor="middle" font-family="sans-serif" font-size="9.5"><tspan x="382.42">GQA-S</tspan><tspan x="382.42" dy="12">LLaMA-3-8B</tspan></text>
<line x1="460.31" y1="585.00" x2="543.16" y2="585.00" stroke="#666" stroke-width="1.1"/>
<text x="501.73" y="599.00" text-anchor="middle" font-family="sans-serif" font-size="9.5"><tspan x="501.73">GQA-L</tspan><tspan x="501.73" dy="12">LLaMA-3.1-405B</tspan></text>
<line x1="579.63" y1="585.00" x2="662.48" y2="585.00" stroke="#666" stroke-width="1.1"/>
<text x="621.05" y="599.00" text-anchor="middle" font-family="sans-serif" font-size="9.5"><tspan x="621.05">MoE-S</tspan><tspan x="621.05" dy="12">Mixtral</tspan></text>
<line x1="710.20" y1="585.00" x2="793.05" y2="585.00" stroke="#666" stroke-width="1.1"/>
<text x="751.63" y="599.00" text-anchor="middle" font-family="sans-serif" font-size="9.5"><tspan x="751.63">MHA-S</tspan><tspan x="751.63" dy="12">LLaMA-2-7B</tspan></text>
<line x1="829.52" y1="585.00" x2="912.37" y2="585.00" stroke="#666" stroke-width="1.1"/>
<text x="870.95" y="599.00" text-anchor="middle" font-family="sans-serif" font-size="9.5"><tspan x="870.95">MHA-L</tspan><tspan x="870.95" dy="12">GPT-3-175B</tspan></text>
<line x1="948.84" y1="585.00" x2="1031.69" y2="585.00" stroke="#666" stroke-width="1.1"/>
<text x="990.27" y="599.00" text-anchor="middle" font-family="sans-serif" font-size="9.5"><tspan x="990.27">GQA-S</tspan><tspan x="990.27" dy="12">LLaMA-3-8B</tspan></text>
<line x1="1068.16" y1="585.00" x2="1151.01" y2="585.00" stroke="#666" stroke-width="1.1"/>
<text x="1109.58" y="599.00" text-anchor="middle" font-family="sans-serif" font-size="9.5"><tspan x="1109.58">GQA-L</tspan><tspan x="1109.58" dy="12">LLaMA-3.1-405B</tspan></text>
<line x1="1187.48" y1="585.00" x2="1270.33" y2="585.00" stroke="#666" stroke-width="1.1"/>
<text x="1228.90" y="599.00" text-anchor="middle" font-family="sans-serif" font-size="9.5"><tspan x="1228.90">MoE-S</tspan><tspan x="1228.90" dy="12">Mixtral</tspan></text>
<line x1="1306.80" y1="585.00" x2="1389.64" y2="585.00" stroke="#666" stroke-width="1.1"/>
<text x="1348.22" y="599.00" text-anchor="middle" font-family="sans-serif" font-size="9.5"><tspan x="1348.22">MoE-L</tspan><tspan x="1348.22" dy="12">DeepSeek-V3</tspan></text>
<line x1="97.85" y1="633.00" x2="666.98" y2="633.00" stroke="#333" stroke-width="2"/>
<text x="382.42" y="654.00" text-anchor="middle" font-family="sans-serif" font-size="14" font-weight="bold">Attn</text>
<line x1="705.70" y1="633.00" x2="1394.15" y2="633.00" stroke="#333" stroke-width="2"/>
<text x="1049.92" y="654.00" text-anchor="middle" font-family="sans-serif" font-size="14" font-weight="bold">MLP</text>
<text x="22" y="312.0" text-anchor="middle" font-family="sans-serif" font-size="13" transform="rotate(-90 22 312.0)">Normalized performance</text>
<text x="1480" y="312.0" text-anchor="middle" font-family="sans-serif" font-size="13" transform="rotate(90 1480 312.0)">Actual / theoretical speedup</text>
<rect x="92" y="715" width="18" height="6" fill="#9ecae1"/>
<rect x="92" y="721" width="18" height="7" fill="#24557a"/>
<rect x="92" y="715" width="18" height="13" fill="none" stroke="#000" stroke-width="1.2"/>
<text x="116" y="726" font-family="sans-serif" font-size="11">S=36864</text>
<rect x="197" y="715" width="18" height="6" fill="#a8dcc8"/>
<rect x="197" y="721" width="18" height="7" fill="#28735a"/>
<rect x="197" y="715" width="18" height="13" fill="none" stroke="#000" stroke-width="1.2"/>
<text x="221" y="726" font-family="sans-serif" font-size="11">S=147456</text>
<text x="337" y="726" font-family="sans-serif" font-size="11" fill="#333">dark: naive T00 · light: gain to optimized T11</text>
<line x1="662" y1="722" x2="702" y2="722" stroke="#a23b72" stroke-width="6.75"/>
<circle cx="682" cy="722" r="8.68" fill="white" stroke="#a23b72" stroke-width="5.1"/>
<text x="712" y="726" font-family="sans-serif" font-size="11">Actual / theoretical speedup</text>
<rect data-role="figure-frame" x="1" y="1" width="1498" height="758" fill="none" stroke="#111" stroke-width="1.4"/>
</svg>